{
  "accessors": [
    {
      "bufferView": 2,
      "componentType": 5126,
      "count": 614,
      "max": [
        1.6229408979415894,
        0.23132827877998352,
        -0.20021042227745056
      ],
      "min": [
        -1.4175455570220947,
        -0.3525959551334381,
        -3.762202262878418
      ],
      "type": "VEC3"
    },
    {
      "bufferView": 2,
      "byteOffset": 7368,
      "componentType": 5126,
      "count": 614,
      "max": [
        0.9998144507408142,
        0.999853789806366,
        0.9965136647224426
      ],
      "min": [
        -0.9998984932899475,
        -0.9999762177467346,
        -0.9999704360961914
      ],
      "type": "VEC3"
    },
    {
      "bufferView": 1,
      "componentType": 5126,
      "count": 614,
      "max": [
        0.8475568890571594,
        0.999877393245697
      ],
      "min": [
        0.010251023806631565,
        0.00012259588402230293
      ],
      "type": "VEC2"
    },
    {
      "bufferView": 1,
      "byteOffset": 4912,
      "componentType": 5126,
      "count": 614,
      "max": [
        0.8475568890571594,
        0.999877393245697
      ],
      "min": [
        0.010251023806631565,
        0.00012259588402230293
      ],
      "type": "VEC2"
    },
    {
      "bufferView": 1,
      "byteOffset": 9824,
      "componentType": 5126,
      "count": 614,
      "max": [
        0.8475568890571594,
        0.999877393245697
      ],
      "min": [
        0.010251023806631565,
        0.00012259588402230293
      ],
      "type": "VEC2"
    },
    {
      "bufferView": 1,
      "byteOffset": 14736,
      "componentType": 5126,
      "count": 614,
      "max": [
        0.8475568890571594,
        0.999877393245697
      ],
      "min": [
        0.010251023806631565,
        0.00012259588402230293
      ],
      "type": "VEC2"
    },
    {
      "bufferView": 1,
      "byteOffset": 19648,
      "componentType": 5126,
      "count": 614,
      "max": [
        0.8475568890571594,
        0.999877393245697
      ],
      "min": [
        0.010251023806631565,
        0.00012259588402230293
      ],
      "type": "VEC2"
    },
    {
      "bufferView": 1,
      "byteOffset": 24560,
      "componentType": 5126,
      "count": 614,
      "max": [
        0.8475568890571594,
        0.999877393245697
      ],
      "min": [
        0.010251023806631565,
        0.00012259588402230293
      ],
      "type": "VEC2"
    },
    {
      "bufferView": 1,
      "byteOffset": 29472,
      "componentType": 5126,
      "count": 614,
      "max": [
        0.8475568890571594,
        0.999877393245697
      ],
      "min": [
        0.010251023806631565,
        0.00012259588402230293
      ],
      "type": "VEC2"
    },
    {
      "bufferView": 1,
      "byteOffset": 34384,
      "componentType": 5126,
      "count": 614,
      "max": [
        0.8475568890571594,
        0.999877393245697
      ],
      "min": [
        0.010251023806631565,
        0.00012259588402230293
      ],
      "type": "VEC2"
    },
    {
      "bufferView": 1,
      "byteOffset": 39296,
      "componentType": 5126,
      "count": 614,
      "max": [
        0.8475568890571594,
        0.999877393245697
      ],
      "min": [
        0.010251023806631565,
        0.00012259588402230293
      ],
      "type": "VEC2"
    },
    {
      "bufferView": 1,
      "byteOffset": 44208,
      "componentType": 5126,
      "count": 614,
      "max": [
        0.8475568890571594,
        0.999877393245697
      ],
      "min": [
        0.010251023806631565,
        0.00012259588402230293
      ],
      "type": "VEC2"
    },
    {
      "bufferView": 0,
      "componentType": 5125,
      "count": 3312,
      "type": "SCALAR"
    }
  ],
  "asset": {
    "extras": {
      "author": "Miss Molly (https://sketchfab.com/missmolly22)",
      "license": "CC-BY-4.0 (http://creativecommons.org/licenses/by/4.0/)",
      "source": "https://sketchfab.com/3d-models/decimated-sprout-94f4167c180b4c84a04516c15bae613e",
      "title": "Decimated Sprout"
    },
    "generator": "Sketchfab-15.42.0",
    "version": "2.0"
  },
  "bufferViews": [
    {
      "buffer": 0,
      "byteLength": 13248,
      "name": "floatBufferViews",
      "target": 34963
    },
    {
      "buffer": 0,
      "byteLength": 49120,
      "byteOffset": 13248,
      "byteStride": 8,
      "name": "floatBufferViews",
      "target": 34962
    },
    {
      "buffer": 0,
      "byteLength": 14736,
      "byteOffset": 62368,
      "byteStride": 12,
      "name": "floatBufferViews",
      "target": 34962
    }
  ],
  "buffers": [
    {
      "byteLength": 77104,
      "uri": "scene.bin"
    }
  ],
  "materials": [
    {
      "doubleSided": true,
      "name": "Holder_-_Assets",
      "pbrMetallicRoughness": {
        "baseColorFactor": [
          0.458705,
          0.575663,
          0.293391,
          1.0
        ],
        "metallicFactor": 0.0,
        "roughnessFactor": 0.6
      }
    }
  ],
  "meshes": [
    {
      "name": "Cube.001_Holder - Assets_0",
      "primitives": [
        {
          "attributes": {
            "NORMAL": 1,
            "POSITION": 0,
            "TEXCOORD_0": 2,
            "TEXCOORD_1": 3,
            "TEXCOORD_2": 4,
            "TEXCOORD_3": 5,
            "TEXCOORD_4": 6,
            "TEXCOORD_5": 7,
            "TEXCOORD_6": 8,
            "TEXCOORD_7": 9,
            "TEXCOORD_8": 10,
            "TEXCOORD_9": 11
          },
          "indices": 12,
          "material": 0,
          "mode": 4
        }
      ]
    }
  ],
  "nodes": [
    {
      "children": [
        1
      ],
      "matrix": [
        1.0,
        0.0,
        0.0,
        0.0,
        0.0,
        2.220446049250313e-16,
        -1.0,
        0.0,
        0.0,
        1.0,
        2.220446049250313e-16,
        0.0,
        0.0,
        0.0,
        0.0,
        1.0
      ],
      "name": "Sketchfab_model"
    },
    {
      "children": [
        2
      ],
      "matrix": [
        0.009999999776482582,
        0.0,
        0.0,
        0.0,
        0.0,
        0.0,
        0.009999999776482582,
        0.0,
        0.0,
        -0.009999999776482582,
        0.0,
        0.0,
        0.0,
        0.0,
        0.0,
        1.0
      ],
      "name": "6b76340099a24e508acee4d6b423e1b8.fbx"
    },
    {
      "children": [
        3
      ],
      "name": "RootNode"
    },
    {
      "children": [
        4
      ],
      "name": "RootNode"
    },
    {
      "children": [
        5
      ],
      "matrix": [
        2.2548854351043692,
        -4.5925840354568255e-08,
        -3.3003754932630924e-08,
        0.0,
        3.300373658644163e-08,
        -9.007684735360469e-07,
        2.25488543510419,
        0.0,
        -4.5925858394646836e-08,
        -2.254885673522769,
        -9.007685682774243e-07,
        0.0,
        0.36614999175071716,
        127.24262237548828,
        -2.7821450233459473,
        1.0
      ],
      "name": "Cube.001"
    },
    {
      "mesh": 0,
      "name": "Cube.001_Holder - Assets_0"
    }
  ],
  "scene": 0,
  "scenes": [
    {
      "name": "Sketchfab_Scene",
      "nodes": [
        0
      ]
    }
  ]
}
